<svg width="32" height="32" viewBox="0 0 32 32" fill="none" xmlns="http://www.w3.org/2000/svg">
<circle cx="16" cy="16" r="16" fill="#C8C8C8"/>
<path d="M10.12 23.24C9.12 23.24 8.23333 23.0267 7.46 22.6C6.68667 22.1733 6.08 21.5733 5.64 20.8C5.2 20.0267 4.98 19.1333 4.98 18.12C4.98 17.0933 5.19333 16.18 5.62 15.38C6.06 14.58 6.66 13.96 7.42 13.52C8.19333 13.0667 9.1 12.84 10.14 12.84C11.1133 12.84 11.9733 13.0533 12.72 13.48C13.4667 13.9067 14.0467 14.4933 14.46 15.24C14.8867 15.9733 15.1 16.7933 15.1 17.7C15.1 17.8467 15.0933 18 15.08 18.16C15.08 18.32 15.0733 18.4867 15.06 18.66H7.52C7.57333 19.4333 7.84 20.04 8.32 20.48C8.81333 20.92 9.40667 21.14 10.1 21.14C10.62 21.14 11.0533 21.0267 11.4 20.8C11.76 20.56 12.0267 20.2533 12.2 19.88H14.8C14.6133 20.5067 14.3 21.08 13.86 21.6C13.4333 22.1067 12.9 22.5067 12.26 22.8C11.6333 23.0933 10.92 23.24 10.12 23.24ZM10.14 14.92C9.51333 14.92 8.96 15.1 8.48 15.46C8 15.8067 7.69333 16.34 7.56 17.06H12.5C12.46 16.4067 12.22 15.8867 11.78 15.5C11.34 15.1133 10.7933 14.92 10.14 14.92ZM17.9531 23.14C17.4865 23.14 17.0998 22.9933 16.7931 22.7C16.4998 22.4067 16.3531 22.0533 16.3531 21.64C16.3531 21.2133 16.4998 20.8533 16.7931 20.56C17.0998 20.2667 17.4865 20.12 17.9531 20.12C18.4198 20.12 18.7998 20.2667 19.0931 20.56C19.3998 20.8533 19.5531 21.2133 19.5531 21.64C19.5531 22.0533 19.3998 22.4067 19.0931 22.7C18.7998 22.9933 18.4198 23.14 17.9531 23.14ZM21.7178 23V15.22H20.3578V13.08H21.7178V11.92C21.7178 10.72 22.0178 9.86667 22.6178 9.36C23.2311 8.85333 24.0578 8.6 25.0978 8.6H26.1978V10.78H25.4978C25.0578 10.78 24.7445 10.8667 24.5578 11.04C24.3711 11.2133 24.2778 11.5067 24.2778 11.92V13.08H26.4178V15.22H24.2778V23H21.7178Z" fill="#1B1B1B"/>
</svg>
